<svg width="1000" height="1000" version="1.2" xmlns="http://www.w3.org/2000/svg" viewBox="0 0 1000 1000"><style type="text/css">path {stroke-width: 1; vector-effect: non-scaling-stroke; fill:none; stroke: #000; stroke-linecap: round; stroke-linejoin: miter;}</style><path d="M0,450L150,450L150,600L0,600z"></path><path d="M0,600L150,600L300,600L300,850L300,900L150,900L0,900z"></path><path d="M600,300L700,300L850,300L850,400L850,450L600,450z"></path><path d="M850,150L1000,150L1000,400L850,400L850,300z"></path><path d="M850,400L1000,400L1000,450L1000,600L1000,650L850,650L850,450z"></path><path d="M450,150L700,150L700,300L600,300L450,300z"></path><path d="M300,850L450,850L550,850L550,1000L450,1000L300,1000L300,900z"></path><path d="M450,0L550,0L750,0L750,150L450,150z"></path><path d="M750,0L850,0L1000,0L1000,150L750,150z"></path><path d="M150,450L300,450L450,450L450,600L300,600L150,600z"></path><path d="M700,150L850,150L850,300L700,300z"></path><path d="M150,-100L300,-100L300,0L300,150L150,150z"></path><path d="M150,900L300,900L300,1000L300,1150L150,1150z"></path><path d="M850,650L1000,650L1000,900L850,900L850,850z"></path><path d="M300,0L450,0L450,150L450,300L300,300z"></path><path d="M550,850L850,850L850,900L850,1000L750,1000L550,1000z"></path><path d="M450,450L600,450L850,450L850,650L850,850L550,850L450,850L450,600z"></path><path d="M300,300L450,300L600,300L600,450L450,450L300,450z"></path><path d="M300,600L450,600L450,850L300,850z"></path><path d="M0,150L300,150L300,450L150,450L0,450L0,400z"></path><path d="M-150,900L0,900L150,900L150,1000L0,1000L-150,1000z"></path><path d="M850,900L1000,900L1150,900L1150,1000L1000,1000L850,1000z"></path><path d="M0,0L150,0L150,150L0,150z"></path></svg>